<svg xmlns="http://www.w3.org/2000/svg" width="512" height="512" style="shape-rendering:geometricPrecision;text-rendering:geometricPrecision;image-rendering:optimizeQuality;fill-rule:evenodd;clip-rule:evenodd"><path fill="#0e0f0f" d="M48.5-.5h414q39 10 49 49v414q-10 39-49 49h-414q-39-10-49-49v-414q10-39 49-49" style="opacity:.997"/><path fill="#ef5d0e" d="M51.5 19.5q203.5-.25 407 .5 25.638 6.138 32.5 31.5.75 20.495.5 41h-472q-.25-20.505.5-41 7.025-24.773 31.5-32" style="opacity:1"/><path fill="#fefefe" d="M19.5 112.5h472q.25 171.5-.5 343-4.224 28.725-32.5 35.5-203.5 1-407 0-27.387-7.389-31.5-35.5-.75-171.5-.5-343" style="opacity:1"/><path fill="#1093f0" d="M249.5 149.5h209v305h-209z" style="opacity:1"/><path fill="#050200" d="M68.5 173.5q20.505-.25 41 .5 15.57 2.07 18.5 17.5l1 153q3.006 7.881 11.5 6 9.318 1.979 11.5-7l1-152q2.93-15.43 18.5-17.5a420 420 0 0 1 41 0q15.57 2.07 18.5 17.5 1 80.5 0 161-7.55 63.547-70.5 74.5-36.878 5.874-71-9-36.35-22.408-39.5-65.5-1-81 0-162 1.672-9.696 10.5-14.5 4.32-.819 8-2.5" style="opacity:1"/><path fill="#d5e6fa" d="M392.5 181.5q26.257-1.99 53 0-.186.91-1 1a676 676 0 0 0-52-1" style="opacity:1"/><path fill="#fdfefe" d="M392.5 181.5q26.262-.495 52 1a20705 20705 0 0 0-69 118.5 6947 6947 0 0 0 70 117.5 469 469 0 0 1-53 .5 8370 8370 0 0 0-38.5-77.5l-37.5 77a487 487 0 0 1-54 .5 10498 10498 0 0 0 71-118 10768 10768 0 0 0-71-120 487 487 0 0 1 54 .5 5304 5304 0 0 0 37.5 78 6572 6572 0 0 1 38.5-78" style="opacity:1"/><path fill="#ee5d0d" d="M68.5 193.5h40q-.71 77.05 1.5 154 5.123 24.09 30 23 28.397 1.098 32-27 .75-74.999.5-150h39q.25 80.501-.5 161-5.617 40.117-44.5 51.5a188.7 188.7 0 0 1-44 2q-50.487-9-53.5-60.5-.75-76.999-.5-154" style="opacity:1"/><path fill="#fefffe" d="M21.5 511.5q1-2 2 0z" style="opacity:.012"/></svg>