<svg xmlns="http://www.w3.org/2000/svg" width="512" height="512" style="shape-rendering:geometricPrecision;text-rendering:geometricPrecision;image-rendering:optimizeQuality;fill-rule:evenodd;clip-rule:evenodd"><path fill="#0e0f0f" d="M48.5-.5h414q39 10 49 49v414q-10 39-49 49h-414q-39-10-49-49v-414q10-39 49-49" style="opacity:.997"/><path fill="#353535" d="M491.5 58.5v34h-472v-34q1.48-29.683 30-38.5a10826 10826 0 0 1 206-1.5q103.034-.23 206 1.5 28.84 8.578 30 38.5" style="opacity:1"/><path fill="#252726" d="M19.5 58.5v34h472v-34q1.492 17.232 1 35h-474q-.492-17.768 1-35" style="opacity:1"/><path fill="#151716" d="M491.5 452.5v-340h-472v340q-1.5-170.248-1-341h474q.5 170.752-1 341" style="opacity:1"/><path fill="#858585" d="M491.5 452.5q-2.564 30.32-32 38.5-204 1-408 0-29.436-8.18-32-38.5v-340h472z" style="opacity:1"/><path fill="#8b8c8b" d="M458.5 454.5v-305h-209v305a23414 23414 0 0 1-1-306h211q.499 153.252-1 306" style="opacity:1"/><path fill="#545454" d="M458.5 454.5h-209v-305h209z" style="opacity:1"/><path d="M69.5 173.5q19.506-.25 39 .5 17.063 1.563 19.5 18.5l1 153q3.329 6.635 11 6 9.882 1.345 12-8l1-151q2.438-16.937 19.5-18.5 19.5-1 39 0 17.063 1.563 19.5 18.5l.5 78q.198 43.04-1.5 86-8.079 58.077-65.5 69.5-40.73 8.034-78-10-34.335-23.39-36.5-65.5-1-79.5 0-159 3.36-16.118 19.5-18" style="opacity:1"/><path fill="#b7c5d4" d="M392.5 181.5q26.257-1.99 53 0-.186.91-1 1a676 676 0 0 0-52-1" style="opacity:1"/><path fill="#fdfdfe" d="M392.5 181.5q26.262-.495 52 1a10536 10536 0 0 0-69 119 21562 21562 0 0 0 70 117.5 702 702 0 0 1-53 0 8370 8370 0 0 0-38.5-77.5l-37.5 77a352 352 0 0 1-53 0 10291 10291 0 0 1 70-117 7228 7228 0 0 0-71-120.5 487 487 0 0 1 54 .5 2816 2816 0 0 0 38 78 2899 2899 0 0 1 38-78" style="opacity:1"/><path fill="#fbfbfb" d="M68.5 193.5h41q-.25 77.001.5 154 5.178 24.108 30 23 25.714.75 31-24 .75-76.499.5-153h41q.25 76.001-.5 152-.963 46.262-44.5 60.5-36.108 9.057-70-6-27.723-18.681-28.5-52.5-.75-76.999-.5-154" style="opacity:1"/><path fill="#fefffe" d="M21.5 511.5q1-2 2 0z" style="opacity:.012"/></svg>